<?xml version="1.0" encoding="UTF-8" ?>
<!DOCTYPE svg PUBLIC "-//W3C//DTD SVG 1.1//EN" "http://www.w3.org/Graphics/SVG/1.1/DTD/svg11.dtd">
<svg width="536pt" height="196pt" viewBox="0 0 536 196" version="1.1" xmlns="http://www.w3.org/2000/svg">
<g id="noneff">
<path fill="none" opacity="1.00" d=" M 0.00 0.00 L 536.00 0.00 L 536.00 196.00 L 0.00 196.00 L 0.00 0.00 M 399.38 55.49 C 395.03 57.45 392.14 62.29 392.83 67.07 C 393.36 72.93 399.25 77.54 405.07 76.79 C 411.23 76.40 416.12 70.06 414.92 63.98 C 414.09 56.95 405.78 52.35 399.38 55.49 M 211.63 55.91 C 211.63 56.55 211.62 57.82 211.62 58.46 C 213.72 58.45 215.82 58.44 217.93 58.42 C 218.05 68.40 217.93 78.38 217.99 88.36 C 212.66 79.09 199.42 77.75 190.65 82.60 C 182.80 86.85 178.02 95.35 176.91 104.04 C 175.73 113.28 176.30 123.42 181.58 131.39 C 185.69 137.56 192.57 142.06 200.09 142.37 C 206.63 142.73 214.50 141.51 218.02 135.22 C 217.98 137.15 217.97 139.07 217.97 141.00 C 226.44 141.00 234.90 141.00 243.37 141.00 C 243.37 140.36 243.37 139.09 243.37 138.46 C 241.26 138.46 239.15 138.46 237.05 138.47 C 236.99 110.95 237.04 83.43 237.02 55.91 C 228.55 55.91 220.09 55.91 211.63 55.91 M 313.86 55.91 C 313.86 56.54 313.86 57.80 313.86 58.43 C 315.98 58.44 318.11 58.47 320.23 58.50 C 320.16 86.00 320.22 113.50 320.20 141.00 C 320.79 141.00 321.96 140.98 322.55 140.98 C 322.82 137.33 324.35 132.05 328.89 132.18 C 333.64 132.83 336.76 136.95 340.79 139.16 C 348.95 144.12 359.52 142.18 367.38 137.56 C 374.31 133.56 378.11 125.75 379.10 118.04 C 380.16 109.47 379.48 100.34 375.36 92.61 C 371.64 85.87 364.86 80.29 356.92 79.91 C 350.41 79.57 343.28 81.67 339.24 87.09 C 339.27 76.70 339.25 66.31 339.25 55.91 C 330.79 55.91 322.33 55.91 313.86 55.91 M 49.92 88.87 C 44.11 93.81 41.32 101.47 40.99 108.94 C 40.44 117.86 42.10 127.79 48.88 134.20 C 55.81 140.69 65.85 142.22 75.00 141.99 C 83.05 141.88 91.21 138.25 95.80 131.48 C 95.37 131.17 94.51 130.56 94.08 130.25 C 88.34 137.33 77.54 140.28 69.41 135.66 C 63.28 132.13 61.04 124.73 60.36 118.10 C 59.70 110.06 59.88 101.78 62.06 93.96 C 63.33 89.55 66.11 84.80 70.98 83.85 C 73.22 83.44 76.76 83.36 77.59 86.03 C 79.27 91.57 76.26 97.39 77.98 102.94 C 80.25 109.19 89.77 111.19 94.33 106.29 C 97.51 102.85 97.77 97.39 95.68 93.32 C 92.83 87.46 86.93 83.51 80.62 82.26 C 70.13 80.13 58.20 81.62 49.92 88.87 M 127.43 82.61 C 120.90 84.44 114.61 87.96 110.48 93.45 C 104.62 101.48 103.47 112.33 106.13 121.76 C 108.16 129.16 113.95 134.94 120.63 138.37 C 133.98 145.45 152.04 142.49 162.07 131.07 C 169.66 121.88 170.47 108.18 165.37 97.62 C 158.61 84.26 141.36 78.74 127.43 82.61 M 256.33 92.36 C 252.23 98.00 251.00 105.20 251.09 112.03 C 251.18 119.45 252.84 127.31 257.91 133.00 C 265.92 141.09 278.27 143.17 289.18 141.71 C 296.04 140.40 303.29 137.53 307.17 131.37 C 306.71 131.09 305.78 130.53 305.32 130.25 C 301.32 135.01 295.08 137.18 289.06 137.80 C 284.02 138.35 278.52 136.71 275.31 132.61 C 271.45 127.84 270.55 121.52 270.02 115.61 C 282.81 115.58 295.60 115.62 308.39 115.59 C 308.15 106.71 307.01 97.00 300.81 90.11 C 289.41 77.37 266.54 78.85 256.33 92.36 M 452.19 82.23 C 445.27 83.84 438.58 87.34 434.08 92.94 C 427.86 101.06 426.61 112.26 429.39 121.93 C 431.43 129.18 437.11 134.84 443.65 138.27 C 456.98 145.45 475.11 142.57 485.20 131.16 C 492.92 121.92 493.74 108.01 488.46 97.40 C 481.90 84.66 465.69 79.18 452.19 82.23 M 389.81 82.58 C 389.81 83.22 389.81 84.48 389.81 85.11 C 391.49 85.12 393.19 85.12 394.88 85.12 C 394.89 102.90 394.88 120.67 394.89 138.45 C 392.79 138.46 390.69 138.46 388.60 138.46 C 388.54 139.06 388.43 140.27 388.37 140.88 C 399.01 141.14 409.65 140.93 420.28 141.00 C 420.28 140.37 420.29 139.10 420.29 138.47 C 418.16 138.46 416.04 138.45 413.93 138.44 C 413.94 119.82 413.93 101.20 413.93 82.58 C 405.89 82.58 397.85 82.58 389.81 82.58 Z" />
<path fill="none" opacity="1.00" d=" M 132.43 84.66 C 136.48 83.09 141.67 83.90 144.46 87.43 C 147.06 90.68 147.87 94.92 148.48 98.94 C 149.45 106.73 149.44 114.63 148.76 122.45 C 148.20 127.05 147.57 131.96 144.76 135.81 C 140.95 141.04 131.90 141.01 128.24 135.62 C 125.39 131.30 124.97 125.94 124.46 120.93 C 123.95 112.91 123.93 104.79 125.19 96.82 C 125.98 92.15 127.59 86.61 132.43 84.66 Z" />
<path fill="none" opacity="1.00" d=" M 273.11 90.12 C 274.22 87.12 276.54 83.95 280.06 83.90 C 283.80 83.81 286.24 87.26 287.36 90.43 C 289.80 97.71 290.33 105.43 290.61 113.06 C 283.70 113.06 276.79 113.06 269.88 113.06 C 270.12 105.33 270.57 97.48 273.11 90.12 Z" />
<path fill="none" opacity="1.00" d=" M 456.36 84.40 C 460.49 83.13 465.56 84.23 468.08 87.95 C 471.11 92.36 471.62 97.89 472.14 103.07 C 472.64 111.01 472.67 119.05 471.35 126.93 C 470.66 130.49 469.66 134.26 467.02 136.90 C 462.64 141.22 454.17 140.49 451.05 135.01 C 448.39 130.33 448.03 124.80 447.58 119.55 C 447.22 111.04 447.09 102.38 449.00 94.02 C 449.90 89.99 452.11 85.65 456.36 84.40 Z" />
<path fill="none" opacity="1.00" d=" M 344.45 85.65 C 348.26 83.91 352.55 86.05 354.78 89.27 C 360.17 96.59 360.54 106.18 360.38 114.93 C 360.03 122.70 358.86 131.33 353.18 137.16 C 350.18 140.40 344.31 139.85 342.02 136.05 C 339.67 132.19 339.49 127.49 339.30 123.10 C 339.19 113.04 339.29 102.99 339.24 92.93 C 339.02 89.68 341.73 86.97 344.45 85.65 Z" />
<path fill="none" opacity="1.00" d=" M 205.25 86.27 C 210.97 83.22 218.48 88.74 218.00 94.95 C 217.78 105.55 218.48 116.20 217.24 126.76 C 216.73 129.70 216.38 132.95 214.35 135.29 C 210.95 138.25 205.22 138.27 202.09 134.88 C 197.16 129.96 196.17 122.58 195.77 115.95 C 195.53 108.41 195.58 100.51 198.68 93.50 C 200.10 90.54 202.22 87.72 205.25 86.27 Z" />
</g>
<g id="#ffffffff">
<path fill="#ffffff" opacity="1.00" d=" M 399.38 55.49 C 405.78 52.35 414.09 56.95 414.92 63.98 C 416.12 70.06 411.23 76.40 405.07 76.79 C 399.25 77.54 393.36 72.93 392.83 67.07 C 392.14 62.29 395.03 57.45 399.38 55.49 Z" />
<path fill="#ffffff" opacity="1.00" d=" M 211.63 55.91 C 220.09 55.91 228.55 55.91 237.02 55.91 C 237.04 83.43 236.99 110.95 237.05 138.47 C 239.15 138.46 241.26 138.46 243.37 138.46 C 243.37 139.09 243.37 140.36 243.37 141.00 C 234.90 141.00 226.44 141.00 217.97 141.00 C 217.97 139.07 217.98 137.15 218.02 135.22 C 214.50 141.51 206.63 142.73 200.09 142.37 C 192.57 142.06 185.69 137.56 181.58 131.39 C 176.30 123.42 175.73 113.28 176.91 104.04 C 178.02 95.35 182.80 86.85 190.65 82.60 C 199.42 77.75 212.66 79.09 217.99 88.36 C 217.93 78.38 218.05 68.40 217.93 58.42 C 215.82 58.44 213.72 58.45 211.62 58.46 C 211.62 57.82 211.63 56.55 211.63 55.91 M 205.25 86.27 C 202.22 87.72 200.10 90.54 198.68 93.50 C 195.58 100.51 195.53 108.41 195.77 115.95 C 196.17 122.58 197.16 129.96 202.09 134.88 C 205.22 138.27 210.95 138.25 214.35 135.29 C 216.38 132.95 216.73 129.70 217.24 126.76 C 218.48 116.20 217.78 105.55 218.00 94.95 C 218.48 88.74 210.97 83.22 205.25 86.27 Z" />
<path fill="#ffffff" opacity="1.00" d=" M 313.86 55.91 C 322.33 55.91 330.79 55.91 339.25 55.91 C 339.25 66.31 339.27 76.70 339.24 87.09 C 343.28 81.67 350.41 79.57 356.92 79.91 C 364.86 80.29 371.64 85.87 375.36 92.61 C 379.48 100.34 380.16 109.47 379.10 118.04 C 378.11 125.75 374.31 133.56 367.38 137.56 C 359.52 142.18 348.95 144.12 340.79 139.16 C 336.76 136.95 333.64 132.83 328.89 132.18 C 324.35 132.05 322.82 137.33 322.55 140.98 C 321.96 140.98 320.79 141.00 320.20 141.00 C 320.22 113.50 320.16 86.00 320.23 58.50 C 318.11 58.47 315.98 58.44 313.86 58.43 C 313.86 57.80 313.86 56.54 313.86 55.91 M 344.45 85.65 C 341.73 86.97 339.02 89.68 339.24 92.93 C 339.29 102.99 339.19 113.04 339.30 123.10 C 339.49 127.49 339.67 132.19 342.02 136.05 C 344.31 139.85 350.18 140.40 353.18 137.16 C 358.86 131.33 360.03 122.70 360.38 114.93 C 360.54 106.18 360.17 96.59 354.78 89.27 C 352.55 86.05 348.26 83.91 344.45 85.65 Z" />
<path fill="#ffffff" opacity="1.00" d=" M 49.92 88.87 C 58.20 81.62 70.13 80.13 80.62 82.26 C 86.93 83.51 92.83 87.46 95.68 93.32 C 97.77 97.39 97.51 102.85 94.33 106.29 C 89.77 111.19 80.25 109.19 77.98 102.94 C 76.26 97.39 79.27 91.57 77.59 86.03 C 76.76 83.36 73.22 83.44 70.98 83.85 C 66.11 84.80 63.33 89.55 62.06 93.96 C 59.88 101.78 59.70 110.06 60.36 118.10 C 61.04 124.73 63.28 132.13 69.41 135.66 C 77.54 140.28 88.34 137.33 94.08 130.25 C 94.51 130.56 95.37 131.17 95.80 131.48 C 91.21 138.25 83.05 141.88 75.00 141.99 C 65.85 142.22 55.81 140.69 48.88 134.20 C 42.10 127.79 40.44 117.86 40.99 108.94 C 41.32 101.47 44.11 93.81 49.92 88.87 Z" />
<path fill="#ffffff" opacity="1.00" d=" M 127.43 82.61 C 141.36 78.74 158.61 84.26 165.37 97.62 C 170.47 108.18 169.66 121.88 162.07 131.07 C 152.04 142.49 133.98 145.45 120.63 138.37 C 113.95 134.94 108.16 129.16 106.13 121.76 C 103.47 112.33 104.62 101.48 110.48 93.45 C 114.61 87.96 120.90 84.44 127.43 82.61 M 132.43 84.66 C 127.59 86.61 125.98 92.15 125.19 96.82 C 123.93 104.79 123.95 112.91 124.46 120.93 C 124.97 125.94 125.39 131.30 128.24 135.62 C 131.90 141.01 140.95 141.04 144.76 135.81 C 147.57 131.96 148.20 127.05 148.76 122.45 C 149.44 114.63 149.45 106.73 148.48 98.94 C 147.87 94.92 147.06 90.68 144.46 87.43 C 141.67 83.90 136.48 83.09 132.43 84.66 Z" />
<path fill="#ffffff" opacity="1.00" d=" M 256.33 92.36 C 266.54 78.85 289.41 77.37 300.81 90.11 C 307.01 97.00 308.15 106.71 308.39 115.59 C 295.60 115.62 282.81 115.58 270.02 115.61 C 270.55 121.52 271.45 127.84 275.31 132.61 C 278.52 136.71 284.02 138.35 289.06 137.80 C 295.08 137.18 301.32 135.01 305.32 130.25 C 305.78 130.53 306.71 131.09 307.17 131.37 C 303.29 137.53 296.04 140.40 289.18 141.71 C 278.27 143.17 265.92 141.09 257.91 133.00 C 252.84 127.31 251.18 119.45 251.09 112.03 C 251.00 105.20 252.23 98.00 256.33 92.36 M 273.11 90.12 C 270.57 97.48 270.12 105.33 269.88 113.06 C 276.79 113.06 283.70 113.06 290.61 113.06 C 290.33 105.43 289.80 97.71 287.36 90.43 C 286.24 87.26 283.80 83.81 280.06 83.90 C 276.54 83.95 274.22 87.12 273.11 90.12 Z" />
<path fill="#ffffff" opacity="1.00" d=" M 452.19 82.23 C 465.69 79.18 481.90 84.66 488.46 97.40 C 493.74 108.01 492.92 121.92 485.20 131.16 C 475.11 142.57 456.98 145.45 443.65 138.27 C 437.11 134.84 431.43 129.18 429.39 121.93 C 426.61 112.26 427.86 101.06 434.08 92.94 C 438.58 87.34 445.27 83.84 452.19 82.23 M 456.36 84.40 C 452.11 85.65 449.90 89.99 449.00 94.02 C 447.09 102.38 447.22 111.04 447.58 119.55 C 448.03 124.80 448.39 130.33 451.05 135.01 C 454.17 140.49 462.64 141.22 467.02 136.90 C 469.66 134.26 470.66 130.49 471.35 126.93 C 472.67 119.05 472.64 111.01 472.14 103.07 C 471.62 97.89 471.11 92.36 468.08 87.95 C 465.56 84.23 460.49 83.13 456.36 84.40 Z" />
<path fill="#ffffff" opacity="1.00" d=" M 389.81 82.58 C 397.85 82.58 405.89 82.58 413.93 82.58 C 413.93 101.20 413.94 119.82 413.93 138.44 C 416.04 138.45 418.16 138.46 420.29 138.47 C 420.29 139.10 420.28 140.37 420.28 141.00 C 409.65 140.93 399.01 141.14 388.37 140.88 C 388.43 140.27 388.54 139.06 388.60 138.46 C 390.69 138.46 392.79 138.46 394.89 138.45 C 394.88 120.67 394.89 102.90 394.88 85.12 C 393.19 85.12 391.49 85.12 389.81 85.11 C 389.81 84.48 389.81 83.22 389.81 82.58 Z" />
</g>
</svg>
